<svg width="105" height="105" viewBox="0 0 105 105" fill="none" xmlns="http://www.w3.org/2000/svg">
<rect x="0.203125" y="0.109375" width="104.688" height="104.688" rx="8" fill="#00B78C"/>
<path d="M29.6708 31.2665C29.6708 30.475 30.4886 29.948 31.2094 30.275L39.0022 33.8107C39.3912 33.9872 39.6411 34.3749 39.6411 34.8021V57.4446C39.6411 61.5107 45.9233 67.0577 52.9347 67.0577C58.4912 67.0577 66.2284 61.8803 66.2284 57.4446V45.0863C66.2284 44.0092 65.5637 41.8552 62.905 41.8552H50.0353C49.4341 41.8552 48.9466 41.3677 48.9466 40.7665V35.1893C48.9466 34.588 49.4341 34.1005 50.0353 34.1005H66.6753C66.819 34.1005 66.9614 34.0721 67.094 34.0168L74.6912 30.8513C75.4083 30.5525 76.1986 31.0794 76.1986 31.8563V57.4446C76.1986 64.8375 66.9575 75.2649 52.9347 76.1048C39.6411 75.2649 29.6708 65.2071 29.6708 57.4446V31.2665Z" fill="white"/>
<path d="M58.1015 50.0524C58.1015 49.4511 57.614 48.9637 57.0128 48.9637H48.8507C48.2494 48.9637 47.762 49.4511 47.762 50.0524V54.1334C47.762 56.9886 50.0765 59.3032 52.9317 59.3032C55.7869 59.3032 58.1015 56.9886 58.1015 54.1334V50.0524Z" fill="white"/>
</svg>
